<?xml version="1.0" encoding="UTF-8"?>
<svg id="_Слой_1" data-name="Слой 1" xmlns="http://www.w3.org/2000/svg" viewBox="0 0 63.17 34.4">
  <path d="M46.45,33.95c-3.37,0-6.72.02-10.06,0-1.37-.01-2.74-.17-4.12-.19-1.92-.02-3.84.04-5.76.02-.28,0-.56-.25-.84-.39.26-.23.5-.63.77-.66,2.94-.3,2.2-.65,1.82-2.8-.34-1.97-.76-3.92-1.1-5.89-.12-.68-.41-.91-1.07-.88-1.32.05-2.64.07-3.95,0-.74-.04-1.03.29-1.14.96-.39,2.37-.76,4.74-1.16,7.1-.19,1.1.24,1.57,1.28,1.64.32.02.62.32.92.5-.34.17-.68.47-1.02.48-1.45.04-2.9,0-4.35-.03-.18,0-.35-.16-.52-.25.12-.2.2-.46.37-.57.16-.11.41-.08.62-.1.79-.08,1.35-.49,1.51-1.32.63-3.22,1.24-6.45,1.87-9.67.56-2.86,1.13-5.73,1.72-8.59.87-4.24,1.74-8.47,2.62-12.7.03-.14.12-.26.27-.58.25,1.02.48,1.85.65,2.7.77,3.87,1.5,7.76,2.3,11.62,1.02,4.96,2.11,9.9,3.15,14.85.14.65.18,1.31.26,1.97.15,1.16.71,1.83,1.91,1.76.21-.01.42.06.75.12,3.07-10.3,6.14-20.62,9.26-31.1-1.73,0-3.2-.12-4.63.04-1,.11-1.85.72-2.06,1.93-.34,2.04-.7,4.08-1.07,6.11-.05.31-.17.6-.28.98-.59-.77-.2-6.73.57-10.3h10.76c-3.17,10.64-6.32,21.23-9.56,32.1,1.64,0,3.17.11,4.68-.03,2.22-.2,3.53-1.56,4.1-4.16.31-1.4.46-2.85.69-4.27.07-.45.18-.89.29-1.45.57.64.21,7.67-.46,11.07ZM24.36,8.95c-.1,0-.19-.02-.29-.02-.88,4.3-1.76,8.6-2.66,12.98h5.36c-.81-4.38-1.61-8.67-2.41-12.96Z"/>
  <path d="M48.82.78c4.46-.29,8.94.04,13.57-.19.14,2.84.29,5.68.43,8.52-.14.03-.28.06-.42.09-.13-.48-.26-.96-.38-1.45-.3-1.29-.53-2.6-.9-3.87-.4-1.37-1.36-2-2.75-1.97-1.53.03-3.06,0-4.67,0v13.94c1.28-.21,2.57-.32,3.8-.67.38-.11.74-.85.83-1.36.24-1.34.33-2.71.49-4.07.02-.19.17-.36.46-.5v14.23c-.09.02-.18.03-.27.05-.08-.31-.2-.62-.23-.93-.15-1.32-.27-2.65-.42-3.97-.12-1.06-.71-1.7-1.73-1.78-.95-.07-1.91-.01-2.94-.01v15.92c2.22-.17,4.42-.2,6.57-.55,1.68-.28,1.79-2.02,2.13-3.38.2-.81.17-1.69.26-2.54.05-.41.15-.82.22-1.23.1,0,.2.02.3.03v8.64h-14.39c-.02-.16-.03-.32-.05-.48.4-.11.8-.28,1.22-.33.64-.08.96-.42.99-1.08.03-.55.07-1.11.07-1.67,0-8.79,0-17.57,0-26.36q0-1.89-1.79-2.3c-.15-.04-.28-.17-.42-.26,0-.16.02-.32.02-.47Z"/>
  <path d="M9.75,23.9c.87-.76,6.89-.78,7.59-.18-.03.06-.05.16-.09.17q-2.07.32-2.09,2.55c0,.52-.08,1.05,0,1.56.42,2.4-.82,3.95-2.48,5.23-1.63,1.27-3.53,1.49-5.38.76-1.11-.44-2.24-1.15-3.06-2.04C1.06,28.47.29,24.03.05,19.44c-.17-3.31.05-6.59.79-9.83.63-2.75,1.81-5.22,3.48-7.42C5.82.21,9.2-.33,11.44.98c.55.32,1.11.65,1.65.99.83.52,1.33.33,1.49-.71.03-.19.18-.37.31-.61v10.84c-.14,0-.29.01-.43.02-.05-.37-.13-.73-.15-1.1-.14-2.31-.51-4.55-1.48-6.66-.74-1.62-1.96-2.62-3.63-2.65-1.62-.03-2.85.9-3.68,2.41-1.46,2.65-1.76,5.62-2.06,8.54-.52,5-.35,9.97.7,14.92.39,1.85,1.05,3.45,2.13,4.87.96,1.26,2.26,1.96,3.86,1.44,1.53-.5,2.14-1.78,2.26-3.31.11-1.47.18-2.96.13-4.43-.05-1.37-.32-1.53-1.65-1.59-.31-.01-.63-.03-1.13-.06Z"/>
</svg>