<svg class="t-sociallinks__svg" role="presentation" width="30px" height="30px" viewBox="0 0 48 48" fill="none" xmlns="http://www.w3.org/2000/svg"> <path fill-rule="evenodd" clip-rule="evenodd" d="M24 0C37.2548 0 48 10.7452 48 24C48 37.2548 37.2548 48 24 48C10.7452 48 0 37.2548 0 24C0 10.7452 10.7452 0 24 0ZM24.2314 12.5C17.8663 12.5 12.4942 17.4255 12.4941 23.9727C12.4941 26.714 13.0015 28.6059 13.4482 30.3047C13.8233 31.6836 14.1543 32.9467 14.1543 34.4414C14.3143 36.4326 17.9823 35.2685 19.1406 33.7793C20.9718 35.1031 22.0251 35.4346 24.292 35.4346C30.5586 35.4011 35.6151 30.2999 35.5938 24.0332C35.5937 17.6682 30.602 12.5 24.2314 12.5ZM24.3857 18.1592V18.165C27.5981 18.349 30.0709 21.0719 29.9453 24.2871C29.7296 27.4955 26.9854 29.9406 23.7734 29.7861C22.768 29.7055 21.8016 29.3614 20.9717 28.7881C20.4699 29.2899 19.6648 29.9402 19.3447 29.8633C18.6774 29.6868 17.8938 26.2951 18.335 23.5098C18.87 20.1452 21.2859 17.9993 24.3857 18.1592Z" fill="#000000"></path> </svg>